<svg id="visual" viewBox="0 0 900 600" width="900" height="600" xmlns="http://www.w3.org/2000/svg" xmlns:xlink="http://www.w3.org/1999/xlink" version="1.1"><rect x="0" y="0" width="900" height="600" fill="#c8c8c8"></rect><g transform="translate(424.42070063536494 310.2443435501749)"><path d="M192.4 -239.6C243.7 -186.1 276 -120.2 275.5 -58.2C275.1 3.9 241.9 62.2 211.8 129.8C181.8 197.5 154.8 274.5 104.3 297.6C53.8 320.7 -20.3 290.1 -79 253.1C-137.7 216.1 -181 172.8 -203.7 122.8C-226.5 72.8 -228.6 16 -218.8 -38.4C-208.9 -92.8 -187.1 -144.8 -148.6 -200.5C-110.1 -256.2 -55.1 -315.6 7.7 -324.8C70.5 -334 141 -293 192.4 -239.6" fill="#fefffe"></path></g></svg>