<svg id="visual" viewBox="0 0 960 540" width="960" height="540" xmlns="http://www.w3.org/2000/svg" xmlns:xlink="http://www.w3.org/1999/xlink" version="1.1"><path d="M0 201L14.5 195.5C29 190 58 179 87.2 168.2C116.3 157.3 145.7 146.7 174.8 137.7C204 128.7 233 121.3 262 127.7C291 134 320 154 349 148.7C378 143.3 407 112.7 436.2 111.7C465.3 110.7 494.7 139.3 523.8 137.5C553 135.7 582 103.3 611 101.7C640 100 669 129 698 148.8C727 168.7 756 179.3 785.2 179.3C814.3 179.3 843.7 168.7 872.8 167.8C902 167 931 176 945.5 180.5L960 185L960 0L945.5 0C931 0 902 0 872.8 0C843.7 0 814.3 0 785.2 0C756 0 727 0 698 0C669 0 640 0 611 0C582 0 553 0 523.8 0C494.7 0 465.3 0 436.2 0C407 0 378 0 349 0C320 0 291 0 262 0C233 0 204 0 174.8 0C145.7 0 116.3 0 87.2 0C58 0 29 0 14.5 0L0 0Z" fill="#6198ff"></path><path d="M0 260L14.5 259.2C29 258.3 58 256.7 87.2 251.3C116.3 246 145.7 237 174.8 228C204 219 233 210 262 211.8C291 213.7 320 226.3 349 214.7C378 203 407 167 436.2 169.7C465.3 172.3 494.7 213.7 523.8 217.2C553 220.7 582 186.3 611 179.2C640 172 669 192 698 208.2C727 224.3 756 236.7 785.2 242.8C814.3 249 843.7 249 872.8 250.8C902 252.7 931 256.3 945.5 258.2L960 260L960 183L945.5 178.5C931 174 902 165 872.8 165.8C843.7 166.7 814.3 177.3 785.2 177.3C756 177.3 727 166.7 698 146.8C669 127 640 98 611 99.7C582 101.3 553 133.7 523.8 135.5C494.7 137.3 465.3 108.7 436.2 109.7C407 110.7 378 141.3 349 146.7C320 152 291 132 262 125.7C233 119.3 204 126.7 174.8 135.7C145.7 144.7 116.3 155.3 87.2 166.2C58 177 29 188 14.5 193.5L0 199Z" fill="#3c80ff"></path><path d="M0 379L14.5 368.2C29 357.3 58 335.7 87.2 326.7C116.3 317.7 145.7 321.3 174.8 314.2C204 307 233 289 262 284.5C291 280 320 289 349 286.3C378 283.7 407 269.3 436.2 269.3C465.3 269.3 494.7 283.7 523.8 283.7C553 283.7 582 269.3 611 264C640 258.7 669 262.3 698 274.8C727 287.3 756 308.7 785.2 313.2C814.3 317.7 843.7 305.3 872.8 302.7C902 300 931 307 945.5 310.5L960 314L960 258L945.5 256.2C931 254.3 902 250.7 872.8 248.8C843.7 247 814.3 247 785.2 240.8C756 234.7 727 222.3 698 206.2C669 190 640 170 611 177.2C582 184.3 553 218.7 523.8 215.2C494.7 211.7 465.3 170.3 436.2 167.7C407 165 378 201 349 212.7C320 224.3 291 211.7 262 209.8C233 208 204 217 174.8 226C145.7 235 116.3 244 87.2 249.3C58 254.7 29 256.3 14.5 257.2L0 258Z" fill="#0066ff"></path><path d="M0 503L14.5 499.5C29 496 58 489 87.2 481.8C116.3 474.7 145.7 467.3 174.8 470.8C204 474.3 233 488.7 262 493.2C291 497.7 320 492.3 349 482.5C378 472.7 407 458.3 436.2 449.3C465.3 440.3 494.7 436.7 523.8 436.7C553 436.7 582 440.3 611 445.7C640 451 669 458 698 466C727 474 756 483 785.2 484.8C814.3 486.7 843.7 481.3 872.8 482.3C902 483.3 931 490.7 945.5 494.3L960 498L960 312L945.5 308.5C931 305 902 298 872.8 300.7C843.7 303.3 814.3 315.7 785.2 311.2C756 306.7 727 285.3 698 272.8C669 260.3 640 256.7 611 262C582 267.3 553 281.7 523.8 281.7C494.7 281.7 465.3 267.3 436.2 267.3C407 267.3 378 281.7 349 284.3C320 287 291 278 262 282.5C233 287 204 305 174.8 312.2C145.7 319.3 116.3 315.7 87.2 324.7C58 333.7 29 355.3 14.5 366.2L0 377Z" fill="#0059dd"></path><path d="M0 541L14.5 541C29 541 58 541 87.2 541C116.3 541 145.7 541 174.8 541C204 541 233 541 262 541C291 541 320 541 349 541C378 541 407 541 436.2 541C465.3 541 494.7 541 523.8 541C553 541 582 541 611 541C640 541 669 541 698 541C727 541 756 541 785.2 541C814.3 541 843.7 541 872.8 541C902 541 931 541 945.5 541L960 541L960 496L945.5 492.3C931 488.7 902 481.3 872.8 480.3C843.7 479.3 814.3 484.7 785.2 482.8C756 481 727 472 698 464C669 456 640 449 611 443.7C582 438.3 553 434.7 523.8 434.7C494.7 434.7 465.3 438.3 436.2 447.3C407 456.3 378 470.7 349 480.5C320 490.3 291 495.7 262 491.2C233 486.7 204 472.3 174.8 468.8C145.7 465.3 116.3 472.7 87.2 479.8C58 487 29 494 14.5 497.5L0 501Z" fill="#004cbb"></path></svg>